Coordinates
version=1
nRows=60
nColumns=12
inDegrees=yes

Units are S.I. units (second, meters, Newtons, ...)
Angles are in degrees

endheader
time	SC_y	SC_z	SC_x	AC_y	AC_z	AC_x	GH_y	GH_z	GH_yy	EL_x	PS_y
       0.0              -28.18          7.803          2.609           46.1          9.767         -15.97          147.1          73.37          80.49          65.01          130.8
   0.02142              -28.19          7.807          2.617           46.1          9.765         -15.97          147.1          73.37          80.48          65.01          130.8
   0.04284              -28.19          7.812          2.626           46.1          9.763         -15.96          147.0          73.36          80.47          65.01          130.8
   0.06426               -28.2          7.817          2.636          46.09          9.761         -15.96          147.0          73.36          80.45          65.01          130.7
   0.08568               -28.2          7.822          2.647          46.09          9.759         -15.95          147.0          73.35          80.44          65.02          130.7
    0.1071              -28.21          7.828          2.658          46.09          9.757         -15.95          147.0          73.35          80.43          65.02          130.7
    0.1285              -28.21          7.833          2.669          46.09          9.754         -15.94          147.0          73.34          80.41          65.02          130.7
    0.1499              -28.22           7.84          2.682          46.08          9.752         -15.93          146.9          73.33          80.39          65.02          130.7
    0.1714              -28.23          7.847          2.695          46.08          9.749         -15.92          146.9          73.33          80.37          65.03          130.6
    0.1928              -28.23          7.854           2.71          46.08          9.746         -15.92          146.9          73.32          80.35          65.03          130.6
    0.2142              -28.24          7.862          2.725          46.07          9.742         -15.91          146.8          73.31          80.33          65.04          130.6
    0.2356              -28.25           7.87          2.742          46.07          9.739          -15.9          146.8           73.3          80.31          65.04          130.6
     0.257              -28.26          7.879           2.76          46.07          9.735         -15.89          146.8          73.29          80.28          65.04          130.5
    0.2785              -28.27          7.889           2.78          46.06          9.731         -15.88          146.7          73.28          80.26          65.05          130.5
    0.2999              -28.28            7.9          2.801          46.06          9.727         -15.87          146.7          73.27          80.23          65.05          130.5
    0.3213              -28.29          7.911          2.824          46.05          9.722         -15.85          146.6          73.26           80.2          65.06          130.4
    0.3427               -28.3          7.923          2.848          46.05          9.717         -15.84          146.6          73.24          80.16          65.07          130.4
    0.3642              -28.32          7.937          2.875          46.04          9.711         -15.83          146.5          73.23          80.13          65.07          130.3
    0.3856              -28.33          7.952          2.905          46.03          9.705         -15.81          146.5          73.21          80.08          65.08          130.3
     0.407              -28.35          7.968          2.937          46.03          9.698         -15.79          146.4          73.19          80.04          65.09          130.2
    0.4284              -28.37          7.986          2.973          46.02          9.691         -15.77          146.3          73.18          79.99           65.1          130.2
    0.4498              -28.39          8.006          3.012          46.01          9.682         -15.75          146.3          73.15          79.94          65.11          130.1
    0.4713              -28.41          8.027          3.055           46.0          9.673         -15.73          146.2          73.13          79.88          65.12          130.0
    0.4927              -28.43          8.051          3.103          45.99          9.663          -15.7          146.1          73.11          79.81          65.13          130.0
    0.5141              -28.46          8.078          3.156          45.98          9.652         -15.67          146.0          73.08          79.74          65.14          129.9
    0.5355              -28.49          8.108          3.216          45.96           9.64         -15.64          145.9          73.04          79.66          65.16          129.8
    0.5569              -28.52          8.141          3.282          45.95          9.626          -15.6          145.7          73.01          79.57          65.17          129.7
    0.5784              -28.56          8.179          3.357          45.93           9.61         -15.56          145.6          72.97          79.46          65.19          129.5
    0.5998               -28.6          8.221          3.441          45.91          9.593         -15.51          145.4          72.92          79.35          65.21          129.4
    0.6212              -28.65           8.27          3.537          45.89          9.573         -15.46          145.2          72.87          79.21          65.24          129.2
    0.6426              -28.71          8.325          3.647          45.87           9.55          -15.4          145.0          72.81          79.06          65.26          129.0
     0.664              -28.77          8.388          3.772          45.84          9.523         -15.33          144.7          72.74          78.89           65.3          128.8
    0.6855              -28.84          8.461          3.918          45.81          9.493         -15.25          144.4          72.67          78.69          65.33          128.6
    0.7069              -28.93          8.545          4.086          45.77          9.458         -15.15          144.1          72.58          78.46          65.37          128.3
    0.7283              -29.03          8.645          4.283          45.72          9.417         -15.04          143.7          72.47          78.19          65.42          128.0
    0.7497              -29.14          8.761          4.516          45.67          9.368         -14.91          143.2          72.34          77.87          65.48          127.6
    0.7711              -29.28            8.9          4.792          45.61           9.31         -14.76          142.7          72.19          77.49          65.55          127.1
    0.7926              -29.45          9.067          5.124          45.54          9.241         -14.58          142.0          72.02          77.03          65.63          126.5
     0.814              -29.65          9.268          5.524          45.45          9.157         -14.36          141.2           71.8          76.48          65.73          125.9
    0.8354               -29.9          9.514          6.014          45.34          9.055         -14.08          140.2          71.54           75.8          65.85          125.0
    0.8568               -30.2          9.818          6.618           45.2          8.928         -13.75          139.0          71.21          74.97           66.0          124.0
    0.8783              -30.58           10.2          7.372          45.03          8.771         -13.33          137.5           70.8          73.93          66.19          122.7
    0.8997              -31.06          10.67          8.321          44.82          8.572          -12.8          135.6          70.29          72.63          66.43          121.1
    0.9211              -31.66          11.28          9.528          44.55           8.32         -12.13          133.1          69.64          70.96          66.73          119.1
    0.9425              -32.44          12.06          11.07           44.2          7.997         -11.28          130.0          68.81          68.84          67.11          116.5
    0.9639              -33.43          13.05          13.05          43.75          7.583         -10.18          126.0          67.74          66.11           67.6          113.2
    0.9854              -34.71          14.32          15.59          43.18          7.053         -8.773          120.9          66.38          62.62          68.23          108.9
     1.007              -36.31          15.92          18.77          42.47          6.388         -7.007          114.5          64.66          58.24          69.02          103.5
     1.028              -38.26          17.87          22.65           41.6          5.576         -4.855          106.7          62.57          52.89          69.99          96.97
      1.05              -40.52          20.13          27.15          40.59          4.636          -2.36          97.61          60.14           46.7          71.11          89.38
     1.071              -42.96          22.58          32.01          39.49          3.618          0.341           87.8          57.52           40.0          72.32          81.16
     1.092              -45.41          25.02          36.88           38.4            2.6          3.042          77.98          54.89          33.29          73.53          72.94
     1.114              -47.67          27.28          41.38          37.39           1.66          5.537          68.92          52.47           27.1          74.64          65.36
     1.135              -49.62          29.23          45.26          36.52         0.8487          7.689           61.1          50.38          21.76          75.61          58.81
     1.157              -51.22          30.83          48.44           35.8          0.183          9.455          54.68          48.66          17.37           76.4          53.44
     1.178              -52.49           32.1          50.97          35.23        -0.3464          10.86          49.58           47.3          13.89          77.03          49.16
       1.2              -53.49           33.1          52.96          34.79        -0.7608          11.96          45.58          46.23          11.16          77.52          45.82
     1.221              -54.27          33.88           54.5          34.44         -1.084          12.82          42.47           45.4           9.03           77.9          43.21
     1.242              -54.87          34.48          55.71          34.17         -1.336          13.49          40.03          44.75          7.368           78.2          41.18
     1.264              -55.35          34.96          56.66          33.96         -1.535          14.01          38.12          44.23          6.061          78.44          39.57
